<svg width="423" height="180" viewBox="0 0 423 180" fill="none" xmlns="http://www.w3.org/2000/svg">
<g opacity="0.5">
<path fill-rule="evenodd" clip-rule="evenodd" d="M372.046 110.676H422.322V95.6206H372.046V110.676Z" fill="black"/>
<path fill-rule="evenodd" clip-rule="evenodd" d="M0 110.676H50.2764V95.6206H0V110.676Z" fill="black"/>
<path fill-rule="evenodd" clip-rule="evenodd" d="M359.987 102.672V107.234C359.474 107.401 358.846 107.485 358.218 107.485C355.799 107.485 354.143 105.947 354.143 103.147C354.143 100.265 356.055 98.6417 358.647 98.6417C360.075 98.6417 361.384 98.9217 362.696 99.4534L363.379 96.3477C361.783 95.8442 360.159 95.6206 358.559 95.6206C353.318 95.6206 350.24 99.0908 350.24 103.427C350.24 108.241 353.513 110.676 357.906 110.676C360.014 110.676 361.897 110.283 363.666 109.612V102.672H359.987ZM345.654 105.806C345.225 105.191 344.829 104.603 344.544 104.211C346.68 103.707 348.135 102.307 348.135 100.07C348.135 97.2419 345.972 95.8704 342.319 95.8704C340.436 95.8704 338.184 95.8985 336.986 95.9549V110.43H340.665V104.827H340.807L344.455 110.43H348.935L345.654 105.806ZM344.23 100.432C344.23 101.637 343.319 102.448 341.89 102.448C341.492 102.448 341.037 102.448 340.665 102.392V98.6699C341.01 98.6417 341.377 98.6135 341.78 98.6135C343.288 98.6135 344.23 99.2862 344.23 100.432ZM333.873 104.797V95.8704H330.254V104.35C330.254 106.448 329.369 107.679 327.116 107.679C325.035 107.679 323.952 106.728 323.952 104.489V95.8704H320.275V105.3C320.275 108.603 322.413 110.674 326.919 110.674C331.793 110.674 333.873 108.043 333.873 104.797ZM315.188 102.644V102.615C316.669 102.056 317.467 100.825 317.467 99.4252C317.467 97.1312 315.842 95.7878 311.853 95.7878C309.885 95.7878 307.462 95.8724 305.954 95.8724V110.422C308.231 110.422 310.168 110.478 311.256 110.478C316.13 110.478 317.669 108.072 317.669 105.89C317.669 104.323 316.837 103.091 315.188 102.644ZM313.565 99.9569C313.565 101.218 312.393 101.834 310.655 101.834C310.454 101.834 310.027 101.834 309.598 101.806V98.3315C310.08 98.3315 310.681 98.3054 311.139 98.3054C312.99 98.3054 313.565 98.976 313.565 99.9569ZM313.792 105.89C313.792 107.095 312.967 107.908 311.168 107.908C310.593 107.908 310.025 107.88 309.598 107.824V104.098C309.969 104.07 310.54 104.07 310.854 104.07C312.711 104.07 313.792 104.601 313.792 105.89ZM298.917 110.43H302.597V95.8724H298.917V110.43ZM286.813 110.43H295.936V107.542H290.492V104.352H295.679V101.608H290.492V98.6981H295.936V95.8704H286.813V110.43ZM281.529 105.806C281.1 105.191 280.702 104.603 280.414 104.211C282.555 103.707 284.01 102.307 284.01 100.07C284.01 97.2419 281.843 95.8704 278.19 95.8704C276.31 95.8704 274.059 95.8985 272.861 95.9549V110.43H276.54V104.827H276.682L280.33 110.43H284.808L281.529 105.806ZM280.105 100.432C280.105 101.637 279.193 102.448 277.765 102.448C277.365 102.448 276.908 102.448 276.54 102.392V98.6699C276.881 98.6417 277.248 98.6135 277.65 98.6135C279.163 98.6135 280.105 99.2842 280.105 100.432ZM265.117 98.6981H270.421V95.8704H261.438V110.43H265.117V104.632H270.136V101.86H265.117V98.6981Z" fill="black"/>
<mask id="mask0_4007_3363" style="mask-type:luminance" maskUnits="userSpaceOnUse" x="57" y="54" width="308" height="72">
<path fill-rule="evenodd" clip-rule="evenodd" d="M57.2731 54.3926H364.642V125.608H57.2731V54.3926Z" fill="white"/>
</mask>
<g mask="url(#mask0_4007_3363)">
<path fill-rule="evenodd" clip-rule="evenodd" d="M352.652 63.164C352.652 61.3657 353.947 60.1819 357.043 60.1819C358.73 60.1819 360.868 60.4656 362.446 60.9156L362.673 54.8427C361.037 54.6145 358.899 54.3926 357.325 54.3926C349.274 54.3926 344.941 58.2131 344.941 63.949C344.941 73.5096 356.706 71.0352 356.706 75.4784C356.706 77.6713 354.679 78.7954 352.259 78.7954C349.951 78.7954 347.755 78.4009 346.066 77.7268L345.782 84.1368C347.418 84.5293 349.669 84.8109 351.525 84.8109C359.689 84.8109 364.642 80.7067 364.642 74.5762C364.642 65.5788 352.652 67.3256 352.652 63.164ZM333.999 61.1376H341.655V54.9557H319.081V61.1376H326.738V84.1923H333.999V61.1376ZM316.446 58.2727C316.446 56.1292 314.707 54.3926 312.561 54.3926C310.415 54.3926 308.676 56.1292 308.676 58.2727C308.676 60.4162 310.415 62.1508 312.561 62.1508C314.707 62.1508 316.446 60.4162 316.446 58.2727ZM316.049 84.1923L305.24 54.9557H296.632L285.764 84.1923H293.082L294.938 79.077H306.255L308.055 84.1923H316.049ZM304.51 73.8466H296.627L299.218 66.7625C299.724 65.4102 300.175 63.8935 300.512 62.6009H300.57C300.907 63.8935 301.469 65.5788 301.975 66.9311L304.51 73.8466ZM293.206 58.2727C293.206 56.1312 291.467 54.3926 289.321 54.3926C287.177 54.3926 285.436 56.1312 285.436 58.2727C285.436 60.4162 287.177 62.1508 289.321 62.1508C291.467 62.1508 293.206 60.4162 293.206 58.2727ZM275.2 61.1376H282.854V54.9557H260.283V61.1376H267.937V84.1923H275.2V61.1376ZM248.279 84.1943H255.54V54.9536H248.279V84.1943ZM242.43 74.5762C242.43 65.5788 230.44 67.3256 230.44 63.164C230.44 61.3657 231.734 60.1819 234.831 60.1819C236.518 60.1819 238.658 60.4656 240.232 60.9156L240.458 54.8427C238.827 54.6145 236.689 54.3926 235.113 54.3926C227.064 54.3926 222.729 58.2131 222.729 63.949C222.729 73.5096 234.494 71.0352 234.494 75.4784C234.494 77.6713 232.467 78.7954 230.045 78.7954C227.739 78.7954 225.543 78.4009 223.852 77.7268L223.572 84.1368C225.206 84.5293 227.457 84.8109 229.315 84.8109C237.477 84.8109 242.43 80.7067 242.43 74.5762ZM213.05 74.7447C212.206 73.5096 211.418 72.3299 210.854 71.5428C215.077 70.5296 217.945 67.7182 217.945 63.2195C217.945 57.539 213.669 54.7851 206.464 54.7851C202.748 54.7851 198.303 54.8427 195.937 54.9536V84.1943H203.196V72.7759H203.48L210.686 84.1943H219.523L213.05 74.7447ZM210.233 63.949C210.233 66.37 208.433 67.9997 205.618 67.9997C204.828 67.9997 203.929 67.9997 203.196 67.8867V60.408C203.871 60.3525 204.606 60.295 205.394 60.295C208.377 60.295 210.233 61.6432 210.233 63.949ZM171.321 84.1923H189.333V78.4009H178.582V71.9908H188.826V66.481H178.582V60.6341H189.333V54.9557H171.321V84.1923ZM156.725 84.1923L167.531 54.8981H160.045L154.98 68.5032C154.192 70.7536 153.346 73.5651 152.616 76.321H152.558C151.826 73.4541 151.038 70.7536 150.194 68.5032L145.184 54.9557H137.248L148.167 84.1923H156.725ZM126.197 84.1943H133.458V54.9536H126.197V84.1943ZM108.932 84.1923H118.67V54.9557H111.635L111.691 67.2681C111.691 70.3056 111.747 72.7225 111.86 74.4652H111.804C110.903 72.4985 109.889 70.6406 108.763 68.8999L100.263 54.9557H90.5251V84.1923H97.5063V69.7425C97.5063 67.4366 97.4487 65.9754 97.3356 64.5697H97.3932C98.1236 66.1994 99.138 68.2813 100.15 69.911L108.932 84.1923ZM84.1261 72.891V54.9557H76.9761V71.9908C76.9761 76.206 75.2313 78.6824 70.7829 78.6824C66.674 78.6824 64.5362 76.7711 64.5362 72.2703V54.9557H57.2731V73.9042C57.2731 80.5382 61.4952 84.6999 70.3899 84.6999C80.0151 84.6999 84.1261 79.414 84.1261 72.891Z" fill="black"/>
<path fill-rule="evenodd" clip-rule="evenodd" d="M255.45 125.225L251.003 95.9868H241.714L236.761 110.944C236.197 112.687 235.747 114.261 235.354 116.341H235.296C234.905 114.372 234.397 112.461 233.887 110.831L229.105 95.9868H219.988L215.426 125.225H222.687L224.432 111.563C224.77 109.199 224.996 107.064 225.107 104.871H225.165C225.615 107.007 226.29 109.596 226.965 111.674L231.187 125.225H238.73L243.458 110.55C244.022 108.638 244.528 106.614 244.923 104.758H244.979C245.148 106.445 245.43 108.694 245.767 111.168L247.738 125.225H255.45ZM213.731 113.924V95.9868H206.579V113.024C206.579 117.241 204.832 119.714 200.388 119.714C196.279 119.714 194.139 117.802 194.139 113.306V95.9868H186.878V114.935C186.878 121.569 191.102 125.731 199.993 125.731C209.618 125.731 213.731 120.445 213.731 113.924ZM185.958 125.225L174.022 110.044L185.281 95.9868H176.386L166.761 108.525V95.9868H159.498V125.225H166.761V111.955L176.386 125.225H185.958ZM148.285 125.225H155.546V95.9889H148.285V125.225ZM134.567 125.225H144.305V95.9868H137.268L137.326 108.303C137.326 111.337 137.382 113.754 137.495 115.5H137.437C136.538 113.532 135.524 111.674 134.398 109.933L125.898 95.9868H116.16V125.225H123.139V110.774C123.139 108.47 123.084 107.007 122.971 105.601H123.026C123.759 107.233 124.773 109.312 125.785 110.944L134.567 125.225ZM105.368 125.225H112.629V95.9889H105.368V125.225ZM85.731 125.225H102.506V118.815H92.9921V95.9868H85.731V125.225ZM83.7331 125.225L71.7973 110.044L83.0562 95.9868H74.1614L64.5362 108.525V95.9868H57.2731V125.225H64.5362V111.955L74.1614 125.225H83.7331Z" fill="black"/>
</g>
</g>
</svg>
