<svg width="416" height="180" viewBox="0 0 416 180" fill="none" xmlns="http://www.w3.org/2000/svg">
<g opacity="0.5">
<path d="M5.46342 40.4832L78.1 125.148H70.5048L1.65027 44.8316L1.64819 36.0373C31.8775 1.65047 31.8796 1.65254 31.8796 1.65254H39.4789L5.46342 40.4832Z" fill="black" fill-opacity="0.4"/>
<path d="M5.45512 53.6716L66.7083 125.148H59.1131L1.65234 58.0283V49.234L43.2796 1.65254H50.8789L5.45512 53.6716Z" fill="black" fill-opacity="0.6"/>
<path d="M5.4489 66.862L55.3145 125.148H47.7193L1.65234 71.2187V62.4244L54.6796 1.65254H62.281L5.4489 66.862Z" fill="black" fill-opacity="0.8"/>
<path d="M5.4406 80.0566L43.9207 125.148H36.3275L1.65234 84.4112V75.6169L66.0797 1.65254H73.6811L5.4406 80.0566Z" fill="black"/>
<path d="M89.832 125.145H92.7427V110.423L107 125.145H111.008L95.5269 109.579L109.784 95.7015H105.987L92.7427 108.904V95.7015H89.832V125.145Z" fill="black"/>
<path d="M115.121 125.148H117.779V93.5126H115.121V125.148Z" fill="black"/>
<path fill-rule="evenodd" clip-rule="evenodd" d="M124.549 125.148H127.207V103.637H124.549V125.148ZM127.204 94.3549H124.547V97.8983H127.204V94.3549Z" fill="black"/>
<path d="M133.977 125.145H136.634V113.249C136.634 109.664 138.153 105.402 143.003 105.402C146.673 105.402 148.107 108.019 148.107 112.068V125.145H150.764V111.394C150.764 106.668 148.74 103.127 143.424 103.127C138.954 103.127 137.352 105.531 136.466 107.471H136.381V103.633H133.809C133.977 105.361 133.977 107.048 133.977 108.693V125.145Z" fill="black"/>
<path fill-rule="evenodd" clip-rule="evenodd" d="M157.609 125.148H160.267V103.637H157.609V125.148ZM160.267 94.3549H157.609V97.8983H160.267V94.3549Z" fill="black"/>
<path d="M167.035 125.145H169.693V114.093L180.323 125.145H183.993L172.224 113.166L182.728 103.633H179.311L169.693 112.448V93.5087H167.035V125.145Z" fill="black"/>
<path d="M204.452 103.632H201.794V115.528C201.794 119.113 200.276 123.374 195.425 123.374C191.755 123.374 190.322 120.758 190.322 116.709V103.632H187.664V117.383C187.664 122.109 189.689 125.652 195.004 125.652C199.475 125.652 201.076 123.248 201.962 121.306H202.047V125.144H204.62C204.452 123.416 204.452 121.729 204.452 120.084V103.632Z" fill="black"/>
<path d="M239.931 125.145V110.338C239.931 106.162 237.485 103.127 233.141 103.127C229.766 103.127 227.235 105.151 226.264 107.68H226.181C225.504 103.927 222.384 103.127 220.486 103.127C215.889 103.127 214.623 105.826 213.779 107.303L213.694 107.259V103.633H211.121C211.289 105.361 211.289 107.048 211.289 108.693V125.145H213.947V113.249C213.947 107.892 216.816 105.402 219.727 105.402C223.144 105.402 224.282 107.807 224.282 110.846V125.145H226.94V113.249C226.94 107.892 229.807 105.402 232.718 105.402C236.135 105.402 237.274 107.807 237.274 110.846V125.145H239.931Z" fill="black"/>
<path d="M257.073 124.387C258.633 125.061 260.87 125.652 263.739 125.652C268.293 125.652 273.399 123.289 273.399 117.341C273.399 108.738 259.899 108.694 259.899 102.79C259.899 98.9935 263.233 97.728 266.268 97.728C268.251 97.728 270.318 98.1076 271.627 98.8254L272.089 96.1678C270.065 95.4085 267.745 95.1969 266.312 95.1969C261.123 95.1969 256.988 98.1491 256.988 102.875C256.988 110.593 270.488 111.31 270.488 117.088C270.488 121.265 267.492 123.121 263.866 123.121C261.123 123.121 259.098 122.489 257.368 121.391L257.073 124.387Z" fill="black"/>
<path d="M288.414 103.632H283.52V97.5163L280.864 98.4437V103.632H276.645V105.91H280.864V118.48C280.864 122.403 281.032 125.652 285.756 125.652C287.063 125.652 288.372 125.314 289.005 125.061L288.835 122.868C288.076 123.163 287.401 123.374 286.389 123.374C284.238 123.374 283.52 121.771 283.52 119.831V105.91H288.414V103.632Z" fill="black"/>
<path d="M310.073 103.632H307.415V115.528C307.415 119.113 305.897 123.374 301.046 123.374C297.376 123.374 295.943 120.758 295.943 116.709V103.632H293.285V117.383C293.285 122.109 295.31 125.652 300.625 125.652C305.096 125.652 306.698 123.248 307.583 121.306H307.668V125.144H310.241C310.073 123.416 310.073 121.729 310.073 120.084V103.632Z" fill="black"/>
<path d="M326.195 103.632H321.301V97.5163L318.646 98.4437V103.632H314.426V105.91H318.646V118.48C318.646 122.403 318.814 125.652 323.538 125.652C324.845 125.652 326.154 125.314 326.786 125.061L326.616 122.868C325.857 123.163 325.183 123.374 324.17 123.374C322.019 123.374 321.301 121.771 321.301 119.831V105.91H326.195V103.632Z" fill="black"/>
<path d="M340.344 103.632H335.45V97.5163L332.792 98.4437V103.632H328.574V105.91H332.792V118.48C332.792 122.403 332.962 125.652 337.686 125.652C338.993 125.652 340.302 125.314 340.935 125.061L340.765 122.868C340.005 123.163 339.331 123.374 338.319 123.374C336.167 123.374 335.45 121.771 335.45 119.831V105.91H340.344V103.632Z" fill="black"/>
<path fill-rule="evenodd" clip-rule="evenodd" d="M346.856 114.391C346.856 110.215 348.163 105.406 353.225 105.406C358.076 105.406 359.594 109.203 359.594 114.391C359.594 118.314 357.866 122.87 353.057 122.87C348.543 122.87 346.856 118.609 346.856 114.391ZM362.252 103.634H359.594V106.08H359.511C357.528 103.508 355.671 103.128 352.804 103.128C346.476 103.128 343.945 107.852 343.945 114.391C343.945 119.157 346.138 125.148 353.016 125.148C355.756 125.148 358.119 124.051 359.553 120.928H359.638C359.638 127.003 359.046 131.982 352.213 131.982C349.893 131.982 347.53 131.306 345.885 130.463L345.676 133.119C346.771 133.457 349.346 134.258 352.171 134.258C359.553 134.258 362.252 129.366 362.252 123.376V103.634Z" fill="black"/>
<path fill-rule="evenodd" clip-rule="evenodd" d="M380.558 125.146H383.174C382.963 123.669 382.963 122.362 382.963 120.634V111.142C382.963 105.533 380.726 103.128 375.413 103.128C373.513 103.128 370.731 103.802 369.086 104.603V107.176C371.067 105.912 373.177 105.404 375.413 105.404C378.998 105.404 380.305 107.261 380.305 110.931V112.028H379.799C374.231 112.028 366.555 112.364 366.555 119.578C366.555 121.52 367.524 125.652 373.642 125.652C376.299 125.652 379.293 124.26 380.473 121.688H380.558V125.146ZM380.305 115.613C380.305 117.933 380.179 123.374 373.936 123.374C371.49 123.374 369.465 122.321 369.465 119.495C369.465 114.769 374.949 114.306 379.546 114.306H380.305V115.613Z" fill="black"/>
<path d="M389.469 125.145H392.126V114.514C392.126 110.635 393.265 105.911 397.483 105.911C398.159 105.911 398.875 105.994 399.425 106.162V103.38C398.96 103.253 398.201 103.127 397.568 103.127C394.825 103.127 393.012 105.361 392.041 107.765H391.958V103.633H389.301C389.469 105.193 389.469 106.079 389.469 108.44V125.145Z" fill="black"/>
<path d="M412.894 103.632H408.002V97.5163L405.345 98.4437V103.632H401.125V105.91H405.345V118.48C405.345 122.403 405.513 125.652 410.237 125.652C411.544 125.652 412.853 125.314 413.486 125.061L413.315 122.868C412.556 123.163 411.882 123.374 410.869 123.374C408.718 123.374 408.002 121.771 408.002 119.831V105.91H412.894V103.632Z" fill="black"/>
</g>
</svg>
