<svg width="439" height="180" viewBox="0 0 439 180" fill="none" xmlns="http://www.w3.org/2000/svg">
<g opacity="0.5" clip-path="url(#clip0_4007_3408)">
<mask id="mask0_4007_3408" style="mask-type:luminance" maskUnits="userSpaceOnUse" x="1" y="1" width="437" height="178">
<path d="M1.31384 178.577H437.688V1.42334H1.31384V178.577Z" fill="white"/>
</mask>
<g mask="url(#mask0_4007_3408)">
<path d="M105.67 73.1767C105.67 91.1673 91.0815 105.751 73.085 105.751C55.0885 105.751 40.5 91.1673 40.5 73.1767C40.5 55.1861 55.0885 40.6023 73.085 40.6023C91.0815 40.6023 105.67 55.1861 105.67 73.1767ZM104.313 67.7464C104.313 87.985 87.8981 104.392 67.653 104.392C47.4078 104.392 30.9958 87.985 30.9958 67.7464C30.9958 47.5079 47.4078 31.0987 67.653 31.0987C87.8981 31.0987 104.313 47.5079 104.313 67.7464ZM102.955 62.3186C102.955 84.805 84.7172 103.037 62.2234 103.037C39.7271 103.037 21.4915 84.805 21.4915 62.3186C21.4915 39.8297 39.7271 21.6 62.2234 21.6C84.7172 21.6 102.955 39.8297 102.955 62.3186ZM101.595 56.8883C101.595 81.6251 81.5362 101.68 56.7913 101.68C32.0465 101.68 11.9873 81.6251 11.9873 56.8883C11.9873 32.1515 32.0465 12.0964 56.7913 12.0964C81.5362 12.0964 101.595 32.1515 101.595 56.8883ZM100.238 51.458C100.238 78.4428 78.3552 100.321 51.3617 100.321C24.3658 100.321 2.48303 78.4428 2.48303 51.458C2.48303 24.4733 24.3658 2.59766 51.3617 2.59766C78.3552 2.59766 100.238 24.4733 100.238 51.458ZM63.675 70.6632C79.2586 61.6666 99.1897 67.0052 108.187 82.5837C117.186 98.1646 111.844 118.089 96.2599 127.083C80.6764 136.078 60.7476 130.739 51.7482 115.16C42.7511 99.5795 48.0914 79.6573 63.675 70.6632ZM59.6511 74.553C77.1838 64.4337 99.6052 70.4386 109.728 87.9657C119.85 105.493 113.841 127.907 96.3083 138.026C78.7755 148.143 56.3566 142.138 46.234 124.611C36.109 107.086 42.1159 84.6723 59.6511 74.553ZM55.6247 78.4428C75.1066 67.1983 100.021 73.8697 111.266 93.3476C122.514 112.823 115.838 137.727 96.3566 148.969C76.8747 160.211 51.9655 153.539 40.7174 134.064C29.4693 114.591 36.1452 89.6872 55.6247 78.4428ZM51.6008 82.3326C73.0295 69.9654 100.434 77.3031 112.807 98.7272C125.178 120.149 117.834 147.544 96.4049 159.911C74.9762 172.281 47.5745 164.941 35.2009 143.517C22.8296 122.097 30.1698 94.7022 51.6008 82.3326ZM47.5769 86.2224C70.9523 72.7324 100.849 80.7366 114.346 104.107C127.843 127.479 119.831 157.364 96.4532 170.854C73.0754 184.346 43.1835 176.34 29.6867 152.97C16.1899 129.599 24.1967 99.7172 47.5769 86.2224ZM82.4999 108.262C66.9163 99.2681 61.5736 79.3458 70.5731 63.7649C79.5701 48.1839 99.5013 42.8454 115.085 51.8419C130.671 60.836 136.011 80.7607 127.012 96.3392C118.015 111.92 98.0859 117.256 82.4999 108.262ZM87.8836 109.8C70.3509 99.6834 64.3416 77.2693 74.4642 59.7423C84.5867 42.2152 107.008 36.2103 124.541 46.3272C142.074 56.4464 148.083 78.8605 137.958 96.3875C127.835 113.915 105.416 119.92 87.8836 109.8ZM93.265 111.341C73.783 100.099 67.1071 75.1928 78.3552 55.7172C89.6033 36.2441 114.515 29.5703 133.997 40.8148C153.479 52.0592 160.152 76.9603 148.904 96.4358C137.658 115.914 112.747 122.585 93.265 111.341ZM98.6487 112.881C77.22 100.514 69.8727 73.1187 82.2487 51.6946C94.62 30.273 122.024 22.9328 143.453 35.3C164.884 47.672 172.224 75.0624 159.85 96.4865C147.479 117.911 120.08 125.248 98.6487 112.881ZM104.03 114.422C80.6546 100.929 72.6406 71.0423 86.1398 47.672C99.6366 24.3018 129.531 16.2977 152.909 29.7876C176.286 43.2824 184.293 73.1646 170.799 96.5348C157.3 119.905 127.41 127.912 104.03 114.422Z" stroke="black" stroke-opacity="0.35" stroke-width="2.338"/>
</g>
<mask id="mask1_4007_3408" style="mask-type:luminance" maskUnits="userSpaceOnUse" x="1" y="1" width="488" height="179">
<path d="M1.31384 179.406H488.734V1.42389H1.31384V179.406Z" fill="white"/>
</mask>
<g mask="url(#mask1_4007_3408)">
<path d="M133.473 77.4619C128.51 77.4619 124.829 74.7359 124.829 69.0497V54.2293H129.498V68.9169C129.498 72.2683 131.205 73.4538 133.473 73.4538C135.775 73.4538 137.485 72.2683 137.485 68.9169V54.2293H142.152V69.0497C142.152 74.7359 138.471 77.4619 133.473 77.4619Z" fill="black"/>
<path d="M157.796 77.0669V66.6482C157.796 64.6128 156.81 63.7918 155.298 63.7918C153.588 63.7918 152.076 65.4989 152.076 67.4378V77.0669H147.54V60.3077H151.813L151.946 62.2465C152.832 60.933 154.673 59.9793 156.81 59.9793C160.392 59.9793 162.334 62.1137 162.334 65.5641V77.0669H157.796Z" fill="black"/>
<path d="M169.744 57.6131C168.266 57.6131 167.015 56.4951 167.015 55.1164C167.015 53.7039 168.266 52.586 169.744 52.586C171.256 52.586 172.505 53.7039 172.505 55.1164C172.505 56.4951 171.256 57.6131 169.744 57.6131ZM167.87 77.0669V63.4296C167.476 63.3645 166.392 63.2317 165.797 63.2003V60.3077H172.406V77.0669H167.87Z" fill="black"/>
<path d="M186.327 77.0669H182.153C180.015 72.5324 177.484 65.6969 175.808 60.3077H180.641C181.496 63.8908 182.745 67.9641 184.288 72.006C185.8 67.9979 187.049 64.0526 187.938 60.3077H192.638C190.93 65.9915 188.529 72.4672 186.327 77.0669Z" fill="black"/>
<path d="M204.964 66.5531C204.964 64.2206 204.01 63.1027 202.303 63.1027C200.494 63.1027 199.375 64.4838 199.245 67.0456H204.964V66.5531ZM209.469 70.1024H199.375C199.639 72.7294 201.052 73.9464 203.617 73.9464C205.095 73.9464 206.805 73.6518 207.79 73.3548L208.645 76.74C206.839 77.2325 205.129 77.4619 202.96 77.4619C197.699 77.4619 194.644 73.9464 194.644 68.6899C194.644 63.6605 197.305 59.9155 202.433 59.9155C207.068 59.9155 209.534 62.7743 209.534 68.0308C209.534 68.7889 209.5 69.6099 209.469 70.1024Z" fill="black"/>
<path d="M222.575 64.2844C219.848 64.2844 218.532 66.7158 218.532 68.6885V77.0669H213.996V60.3077H218.269L218.402 63.3307C219.452 61.1962 221.032 60.1121 222.838 60.1121C223.495 60.1121 224.121 60.2425 224.317 60.3077V64.4486C223.988 64.3834 223.334 64.2844 222.575 64.2844Z" fill="black"/>
<path d="M233.153 77.3989C229.962 77.3989 227.629 76.5756 226.708 76.1482L227.861 72.763C228.385 72.9948 230.421 73.8496 232.954 73.8496C235.157 73.8496 235.978 73.3884 235.978 72.3381C235.978 71.056 233.942 70.759 231.706 70.0032C229.076 69.1171 227.334 67.9364 227.334 65.2056C227.334 61.69 230.194 59.9829 234.008 59.9829C236.242 59.9829 237.952 60.2437 239.495 60.7049V64.3532C237.722 63.7617 236.044 63.4647 234.237 63.4647C232.167 63.4647 231.805 64.1214 231.805 64.8458C231.805 65.9951 233.744 66.3235 235.848 66.9802C238.411 67.8012 240.548 68.8877 240.548 72.0097C240.548 75.7884 237.459 77.3989 233.153 77.3989Z" fill="black"/>
<path d="M247.049 57.6131C245.57 57.6131 244.319 56.4951 244.319 55.1164C244.319 53.7039 245.57 52.586 247.049 52.586C248.561 52.586 249.812 53.7039 249.812 55.1164C249.812 56.4951 248.561 57.6131 247.049 57.6131ZM245.177 77.0669V63.4296C244.781 63.3645 243.699 63.2317 243.104 63.2003V60.3077H249.713V77.0669H245.177Z" fill="black"/>
<path d="M260.685 77.3989C257.072 77.3989 255.69 75.2959 255.69 72.2391V63.8607H253.224V60.3113H255.69V56.762C256.939 56.3032 258.649 55.6127 260.226 54.7917V60.3113H264.436V63.8607H260.226V71.7151C260.226 73.2918 260.85 73.8496 262.002 73.8496C262.922 73.8496 263.907 73.6854 264.436 73.5188L265.224 76.7736C263.743 77.1671 262.299 77.3989 260.685 77.3989Z" fill="black"/>
<path d="M278.117 58.667C276.705 58.667 275.717 57.7471 275.717 56.4988C275.717 55.2167 276.705 54.2629 278.117 54.2629C279.596 54.2629 280.584 55.2167 280.584 56.4988C280.584 57.7471 279.596 58.667 278.117 58.667ZM277.033 69.3465H276.342C273.055 69.3465 271.97 70.3316 271.97 72.0097C271.97 73.0262 272.497 74.0451 274.04 74.0451C275.26 74.0451 276.473 73.5188 277.033 73.06V69.3465ZM271.543 58.667C270.13 58.667 269.145 57.7471 269.145 56.4988C269.145 55.2167 270.13 54.2629 271.543 54.2629C273.024 54.2629 274.009 55.2167 274.009 56.4988C274.009 57.7471 273.024 58.667 271.543 58.667ZM277.262 77.0681L277.132 75.8536C276.506 76.4452 274.862 77.3989 272.693 77.3989C269.901 77.3989 267.567 75.984 267.567 72.3357C267.567 69.4793 269.012 67.7698 271.509 66.9489C272.562 66.5867 273.811 66.4225 275.224 66.3549C275.685 66.3235 276.54 66.2921 277.033 66.2921V65.6329C277.033 63.9573 276.212 63.2353 273.714 63.2353C272.234 63.2353 270.722 63.5299 268.881 64.1891V60.7363C270.787 60.2123 272.432 59.9829 274.7 59.9829C279.332 59.9829 281.501 61.6248 281.501 65.7005V77.0681H277.262Z" fill="black"/>
<path d="M292.303 77.3989C288.687 77.3989 287.305 75.2959 287.305 72.2391V63.8607H284.839V60.3113H287.305V56.762C288.556 56.3032 290.266 55.6127 291.844 54.7917V60.3113H296.049V63.8607H291.844V71.7151C291.844 73.2918 292.464 73.8496 293.616 73.8496C294.539 73.8496 295.525 73.6854 296.049 73.5188L296.839 76.7736C295.358 77.1671 293.914 77.3989 292.303 77.3989Z" fill="black"/>
<path d="M305.925 77.3989C302.737 77.3989 300.404 76.5756 299.483 76.1482L300.633 72.763C301.157 72.9948 303.196 73.8496 305.727 73.8496C307.93 73.8496 308.751 73.3884 308.751 72.3381C308.751 71.056 306.715 70.759 304.478 70.0032C301.848 69.1171 300.107 67.9364 300.107 65.2056C300.107 61.69 302.966 59.9829 306.78 59.9829C309.014 59.9829 310.724 60.2437 312.268 60.7049V64.3532C310.495 63.7617 308.816 63.4647 307.01 63.4647C304.94 63.4647 304.577 64.1214 304.577 64.8458C304.577 65.9951 306.517 66.3235 308.621 66.9802C311.183 67.8012 313.321 68.8877 313.321 72.0097C313.321 75.7884 310.232 77.3989 305.925 77.3989Z" fill="black"/>
<path d="M336.801 77.0669V66.4864C336.801 64.6128 336.144 63.7918 334.632 63.7918C332.924 63.7918 331.738 65.4989 331.738 67.4378V77.0669H327.202V66.4864C327.202 64.6128 326.545 63.7918 325.033 63.7918C323.326 63.7918 322.14 65.4989 322.14 67.4378V77.0669H317.604V60.3077H321.879L322.009 62.2465C322.898 60.933 324.442 59.9793 326.545 59.9793C328.847 59.9793 330.357 60.8678 331.115 62.4759C332.166 61.0634 333.745 59.9793 336.078 59.9793C339.629 59.9793 341.339 62.0485 341.339 65.4989V77.0669H336.801Z" fill="black"/>
<path d="M356.09 66.5531C356.09 64.2206 355.139 63.1027 353.426 63.1027C351.622 63.1027 350.501 64.4838 350.371 67.0456H356.09V66.5531ZM360.593 70.1024H350.501C350.765 72.7294 352.18 73.9464 354.74 73.9464C356.223 73.9464 357.931 73.6518 358.916 73.3548L359.771 76.74C357.962 77.2325 356.255 77.4619 354.086 77.4619C348.825 77.4619 345.77 73.9464 345.77 68.6899C345.77 63.6605 348.431 59.9155 353.562 59.9155C358.194 59.9155 360.658 62.7743 360.658 68.0308C360.658 68.7889 360.626 69.6099 360.593 70.1024Z" fill="black"/>
<path d="M375.256 64.7782C374.631 64.2204 373.843 63.7279 372.561 63.7279C370.655 63.7279 369.177 65.2708 369.177 68.8539C369.177 71.9735 369.998 73.8158 372.136 73.8158C374.01 73.8158 375.256 72.5675 375.256 69.5445V64.7782ZM375.522 77.0681L375.389 75.5904C374.336 76.706 373.087 77.3989 371.051 77.3989C367.269 77.3989 364.344 74.8999 364.344 68.8539C364.344 62.9383 367.498 59.9829 371.213 59.9829C373.778 59.9829 374.962 60.9995 375.256 61.2626V52.9156H379.795V77.0681H375.522Z" fill="black"/>
<path d="M387.476 57.6131C385.998 57.6131 384.747 56.4951 384.747 55.1164C384.747 53.7039 385.998 52.586 387.476 52.586C388.988 52.586 390.239 53.7039 390.239 55.1164C390.239 56.4951 388.988 57.6131 387.476 57.6131ZM385.602 77.0669V63.4296C385.21 63.3645 384.126 63.2317 383.532 63.2003V60.3077H390.138V77.0669H385.602Z" fill="black"/>
<path d="M394.097 77.0669V73.6165C395.148 72.0737 397.056 69.8716 398.501 68.1283C400.078 66.2546 401.691 64.5138 402.283 63.857H394.426V60.3077H407.937V63.758C406.949 64.8083 404.978 66.8486 403.565 68.4253C401.921 70.2652 400.409 72.105 399.259 73.5175H408.266V77.0669H394.097Z" fill="black"/>
<path d="M414.911 57.6131C413.433 57.6131 412.181 56.4951 412.181 55.1164C412.181 53.7039 413.433 52.586 414.911 52.586C416.423 52.586 417.671 53.7039 417.671 55.1164C417.671 56.4951 416.423 57.6131 414.911 57.6131ZM413.036 77.0669V63.4296C412.643 63.3645 411.558 63.2317 410.967 63.2003V60.3077H417.572V77.0669H413.036Z" fill="black"/>
<path d="M433.152 77.0669V66.6482C433.152 64.6128 432.165 63.7918 430.653 63.7918C428.945 63.7918 427.433 65.4989 427.433 67.4378V77.0669H422.897V60.3077H427.17L427.3 62.2465C428.189 60.933 430.027 59.9793 432.165 59.9793C435.749 59.9793 437.688 62.1137 437.688 65.5641V77.0669H433.152Z" fill="black"/>
<path d="M131.599 90.3496H129.594V96.823H131.237C134.394 96.823 135.512 95.3428 135.512 93.4378C135.512 91.3685 134.589 90.3496 131.599 90.3496ZM138.108 109.473C136.727 106.747 134.394 102.671 132.488 100.536H129.594V109.473H125.025V86.6361H132.027C137.352 86.6361 140.376 88.9685 140.376 93.2422C140.376 95.4418 139.487 97.6439 137.123 99.0902C139.521 101.884 141.594 105.595 143.366 109.473H138.108Z" fill="black"/>
<path d="M153.393 95.8055C151.192 95.8055 150.173 97.8095 150.173 101.096C150.173 104.382 151.192 106.386 153.393 106.386C155.595 106.386 156.615 104.382 156.615 101.096C156.615 97.8095 155.595 95.8055 153.393 95.8055ZM153.393 109.868C148.267 109.868 145.374 105.99 145.374 101.096C145.374 96.0035 148.101 92.3213 153.393 92.3213C158.685 92.3213 161.414 96.0035 161.414 101.096C161.414 105.99 158.523 109.868 153.393 109.868Z" fill="black"/>
<path d="M170.62 109.801C167.432 109.801 165.099 108.98 164.179 108.553L165.328 105.168C165.855 105.4 167.891 106.254 170.422 106.254C172.625 106.254 173.446 105.793 173.446 104.74C173.446 103.461 171.41 103.164 169.176 102.408C166.546 101.522 164.802 100.339 164.802 97.6103C164.802 94.0948 167.661 92.3853 171.475 92.3853C173.712 92.3853 175.419 92.6485 176.963 93.1096V96.758C175.19 96.1664 173.511 95.8695 171.705 95.8695C169.635 95.8695 169.272 96.5262 169.272 97.2481C169.272 98.3999 171.212 98.7283 173.316 99.385C175.881 100.206 178.016 101.292 178.016 104.412C178.016 108.191 174.927 109.801 170.62 109.801Z" fill="black"/>
<path d="M187.418 109.801C183.802 109.801 182.423 107.698 182.423 104.641V96.263H179.957V92.7137H182.423V89.1643C183.669 88.7056 185.381 88.0174 186.959 87.1941V92.7137H191.166V96.263H186.959V104.117C186.959 105.694 187.582 106.254 188.734 106.254C189.654 106.254 190.64 106.088 191.166 105.924L191.954 109.178C190.475 109.572 189.029 109.801 187.418 109.801Z" fill="black"/>
<path d="M201.228 95.8055C199.027 95.8055 198.008 97.8095 198.008 101.096C198.008 104.382 199.027 106.386 201.228 106.386C203.43 106.386 204.45 104.382 204.45 101.096C204.45 97.8095 203.43 95.8055 201.228 95.8055ZM201.228 109.868C196.1 109.868 193.209 105.99 193.209 101.096C193.209 96.0035 195.936 92.3213 201.228 92.3213C206.52 92.3213 209.249 96.0035 209.249 101.096C209.249 105.99 206.355 109.868 201.228 109.868Z" fill="black"/>
<path d="M220.951 109.739C215.758 109.739 212.799 106.387 212.799 101.131C212.799 95.8383 215.823 92.4532 221.149 92.4532C223.383 92.4532 225.125 92.9143 225.422 93.0471V96.5965C225.06 96.4299 223.417 96.1015 222.135 96.1015C219.176 96.1015 217.565 97.5164 217.565 101.097C217.565 104.415 219.012 106.025 221.642 106.025C223.089 106.025 224.533 105.697 225.192 105.467L226.178 108.853C224.796 109.345 223.055 109.739 220.951 109.739Z" fill="black"/>
<path d="M239.46 109.473C238.081 107.237 235.909 104.313 233.839 101.587V109.473H229.301V85.3201H233.839V98.9912L239.098 92.7134H244.525L238.115 99.9763C239.953 102.014 242.515 105.366 245.015 109.473H239.46Z" fill="black"/>
</g>
</g>
<defs>
<clipPath id="clip0_4007_3408">
<rect width="439" height="180" fill="white"/>
</clipPath>
</defs>
</svg>
