<svg width="102" height="109" viewBox="0 0 102 109" fill="none" xmlns="http://www.w3.org/2000/svg">
<rect y="7.59082" width="101.209" height="101.209" rx="30.3628" fill="#0E0F27"/>
<path d="M67.9646 35.7881C65.3197 43.3969 62.6657 51.0025 60.0235 58.6123H63.559C64.164 58.6123 64.6528 59.1016 64.6528 59.7062V60.7963H60.4924C60.0565 60.7963 59.1817 61.0292 58.7044 62.4011L53.9368 76.092V85.5928C53.9368 88.375 55.1903 88.5494 57.37 88.5603H62.8508C64.7092 88.509 67.0483 87.6412 68.2333 85.6381L68.2626 85.5942L79.3758 66.3279C83.1685 59.7588 80.4091 57.857 79.3003 55.4304L67.9646 35.7881ZM66.5603 47.0716L69.6717 47.0753C69.771 47.0753 70.211 47.0606 70.4576 47.4877C70.9632 48.3637 72.855 51.6719 73.3152 52.4425H71.892V52.4389C71.5983 52.4444 71.3111 52.2989 71.1539 52.0265L69.2575 48.741H67.399C66.9376 48.741 66.5663 48.3696 66.5663 47.9082L66.5603 47.0716ZM71.8898 68.2986H73.3131C72.1243 70.3568 74.2422 66.6933 70.4555 73.2535C70.2972 73.5267 70.0109 73.6725 69.7174 73.6659L66.5581 73.6696L66.5655 72.8331C66.5655 72.3716 66.9369 72.0003 67.3982 72.0003H69.2567L71.153 68.7149C71.3105 68.4424 71.5976 68.2966 71.8911 68.3025L71.8898 68.2986Z" fill="white"/>
<path d="M38.1327 34.501C36.2445 34.501 33.7822 35.3577 32.561 37.4344C30.5327 40.9447 28.5061 44.4563 26.479 47.9674C30.6208 55.143 34.7654 62.3169 38.9056 69.4934C39.9729 66.5927 41.0436 63.6932 42.0964 60.7878H38.6103V60.7915C38.005 60.7915 37.5145 60.2999 37.5145 59.6996V58.6091C37.8936 58.6091 41.567 58.6054 41.7557 58.6054C42.7018 58.5411 43.2054 57.7346 43.4506 57.1363L47.1146 47.1435V37.4725C47.1146 34.6902 45.8649 34.5158 43.6853 34.5049L38.1327 34.501ZM35.738 47.0676H38.9168L38.9094 47.8625C38.9094 48.221 38.66 48.7386 38.0752 48.7386H36.2167C35.5832 49.8331 34.9519 50.9289 34.3173 52.0228C34.1599 52.2953 33.8727 52.4411 33.5793 52.4352V52.4389H32.156C33.1057 50.7853 34.0663 49.1379 35.0132 47.4826C35.2387 47.0916 35.6375 47.0673 35.738 47.0676Z" fill="white"/>
<path d="M60.7499 27.8314L60.746 27.8462C58.0649 27.8975 55.6168 29.9982 54.3643 33.3308L54.335 33.3271L39.3366 74.4948L25.1271 49.8839L21.9363 55.4139C20.7472 57.8594 18.0605 59.7429 21.8564 66.3189C25.6174 72.8271 29.3575 79.3488 33.1225 85.8542C34.6214 88.378 35.382 88.5423 37.9902 88.5529H43.9139C46.0891 88.5455 47.3981 88.3676 48.3653 85.6157L68.4775 27.8311L60.7499 27.8314Z" fill="#29A5C4"/>
</svg>
