<svg width="96" height="96" viewBox="0 0 96 96" fill="none" xmlns="http://www.w3.org/2000/svg">
<path d="M33.6 12H18.4C16.1598 12 15.0397 12 14.184 12.436C13.4314 12.8195 12.8195 13.4314 12.436 14.184C12 15.0397 12 16.1598 12 18.4V33.6C12 35.8402 12 36.9603 12.436 37.816C12.8195 38.5686 13.4314 39.1805 14.184 39.564C15.0397 40 16.1598 40 18.4 40H33.6C35.8402 40 36.9603 40 37.816 39.564C38.5686 39.1805 39.1805 38.5686 39.564 37.816C40 36.9603 40 35.8402 40 33.6V18.4C40 16.1598 40 15.0397 39.564 14.184C39.1805 13.4314 38.5686 12.8195 37.816 12.436C36.9603 12 35.8402 12 33.6 12Z" stroke="white" stroke-width="6" stroke-linecap="round" stroke-linejoin="round"/>
<path d="M77.6 12H62.4C60.1598 12 59.0397 12 58.184 12.436C57.4314 12.8195 56.8195 13.4314 56.436 14.184C56 15.0397 56 16.1598 56 18.4V33.6C56 35.8402 56 36.9603 56.436 37.816C56.8195 38.5686 57.4314 39.1805 58.184 39.564C59.0397 40 60.1598 40 62.4 40H77.6C79.8402 40 80.9603 40 81.816 39.564C82.5686 39.1805 83.1805 38.5686 83.564 37.816C84 36.9603 84 35.8402 84 33.6V18.4C84 16.1598 84 15.0397 83.564 14.184C83.1805 13.4314 82.5686 12.8195 81.816 12.436C80.9603 12 79.8402 12 77.6 12Z" stroke="white" stroke-width="6" stroke-linecap="round" stroke-linejoin="round"/>
<path d="M77.6 56H62.4C60.1598 56 59.0397 56 58.184 56.436C57.4314 56.8195 56.8195 57.4314 56.436 58.184C56 59.0397 56 60.1598 56 62.4V77.6C56 79.8402 56 80.9603 56.436 81.816C56.8195 82.5686 57.4314 83.1805 58.184 83.564C59.0397 84 60.1598 84 62.4 84H77.6C79.8402 84 80.9603 84 81.816 83.564C82.5686 83.1805 83.1805 82.5686 83.564 81.816C84 80.9603 84 79.8402 84 77.6V62.4C84 60.1598 84 59.0397 83.564 58.184C83.1805 57.4314 82.5686 56.8195 81.816 56.436C80.9603 56 79.8402 56 77.6 56Z" stroke="white" stroke-width="6" stroke-linecap="round" stroke-linejoin="round"/>
<path d="M33.6 56H18.4C16.1598 56 15.0397 56 14.184 56.436C13.4314 56.8195 12.8195 57.4314 12.436 58.184C12 59.0397 12 60.1598 12 62.4V77.6C12 79.8402 12 80.9603 12.436 81.816C12.8195 82.5686 13.4314 83.1805 14.184 83.564C15.0397 84 16.1598 84 18.4 84H33.6C35.8402 84 36.9603 84 37.816 83.564C38.5686 83.1805 39.1805 82.5686 39.564 81.816C40 80.9603 40 79.8402 40 77.6V62.4C40 60.1598 40 59.0397 39.564 58.184C39.1805 57.4314 38.5686 56.8195 37.816 56.436C36.9603 56 35.8402 56 33.6 56Z" stroke="white" stroke-width="6" stroke-linecap="round" stroke-linejoin="round"/>
</svg>
