<svg width="96" height="96" viewBox="0 0 96 96" fill="none" xmlns="http://www.w3.org/2000/svg">
<path d="M32.5041 55.9999C34.2802 62.9008 40.5446 67.9999 48 67.9999C55.4554 67.9999 61.7198 62.9008 63.4959 55.9999M44.0708 11.056L16.9416 32.1565C15.1281 33.567 14.2213 34.2722 13.5681 35.1554C12.9895 35.9378 12.5584 36.8191 12.2961 37.7562C12 38.8141 12 39.9628 12 42.2602V71.1999C12 75.6804 12 77.9206 12.8719 79.6319C13.6389 81.1372 14.8628 82.361 16.3681 83.128C18.0794 83.9999 20.3196 83.9999 24.8 83.9999H71.2C75.6804 83.9999 77.9206 83.9999 79.6319 83.128C81.1372 82.361 82.3611 81.1372 83.1281 79.6319C84 77.9206 84 75.6804 84 71.1999V42.2602C84 39.9628 84 38.8141 83.7039 37.7562C83.4416 36.8191 83.0105 35.9378 82.4319 35.1554C81.7787 34.2722 80.8719 33.567 79.0584 32.1565L51.9292 11.056C50.5239 9.96298 49.8213 9.41648 49.0454 9.2064C48.3608 9.02104 47.6392 9.02104 46.9546 9.2064C46.1787 9.41648 45.4761 9.96298 44.0708 11.056Z" stroke="#0E0F27" stroke-width="6" stroke-linecap="round" stroke-linejoin="round"/>
</svg>
