<svg width="144" height="144" viewBox="0 0 144 144" fill="none" xmlns="http://www.w3.org/2000/svg">
<path d="M30 29.9376C30 24.1106 30 21.1971 31.2149 19.5911C32.2734 18.1919 33.8911 17.3261 35.6424 17.2216C37.6526 17.1015 40.0768 18.7176 44.9251 21.9499L108.018 64.0121C112.025 66.6829 114.028 68.0182 114.726 69.7014C115.336 71.1729 115.336 72.8267 114.726 74.2982C114.028 75.9814 112.025 77.3167 108.018 79.9875L44.9251 122.05C40.0768 125.282 37.6526 126.898 35.6424 126.778C33.8911 126.673 32.2734 125.808 31.2149 124.409C30 122.802 30 119.889 30 114.062V29.9376Z" stroke="white" stroke-width="6" stroke-linecap="round" stroke-linejoin="round"/>
</svg>
