<svg width="682" height="120" viewBox="0 0 682 120" fill="none" xmlns="http://www.w3.org/2000/svg">
<path d="M95.5272 15.6758C90.3222 30.6469 85.0993 45.6117 79.8999 60.5847H86.8573C88.0479 60.5847 89.0099 61.5475 89.0099 62.7372V64.882H80.8225C79.9648 64.882 78.2432 65.3403 77.3039 68.0397L67.9219 94.978V113.672C67.9219 119.146 70.3886 119.489 74.6779 119.51H85.4637C89.1207 119.41 93.7239 117.703 96.056 113.761L96.1136 113.675L117.983 75.7661C125.447 62.8408 120.016 59.0986 117.835 54.3242L95.5272 15.6758ZM92.7637 37.8773L98.8865 37.8846C99.0814 37.8846 99.9475 37.8556 100.433 38.6959C101.428 40.4196 105.15 46.9289 106.057 48.4452H103.256V48.4379C102.678 48.4487 102.113 48.1626 101.803 47.6265L98.0714 41.162H94.4141C93.506 41.162 92.7753 40.4313 92.7753 39.5234L92.7637 37.8773ZM103.251 79.6437H106.052C103.713 83.6933 107.88 76.485 100.429 89.3929C100.117 89.9304 99.5538 90.2173 98.9768 90.2043L92.7593 90.2115L92.7738 88.5657C92.7738 87.6577 93.5046 86.9272 94.4124 86.9272H98.0694L101.802 80.4626C102.112 79.9265 102.676 79.6396 103.254 79.6512L103.251 79.6437Z" fill="#0A2833"/>
<path d="M36.8083 13.1562C33.0925 13.1562 28.2468 14.8421 25.8438 18.9282C21.8523 25.835 17.8642 32.7444 13.875 39.6527C22.0256 53.7715 30.1817 67.887 38.3293 82.0075C40.4296 76.3001 42.5367 70.5949 44.6084 64.8784H37.7481V64.8857C36.5571 64.8857 35.5917 63.9182 35.5917 62.7371V60.5916C36.3378 60.5916 43.5665 60.5843 43.9381 60.5843C45.7997 60.4577 46.7908 58.8708 47.2733 57.6935L54.4838 38.0317V19.0029C54.4838 13.5286 52.0244 13.1853 47.7351 13.164L36.8083 13.1562ZM32.0957 37.8825H38.3513L38.3368 39.4465C38.3368 40.1518 37.846 41.1702 36.6951 41.1702H33.0378C31.7911 43.3238 30.5489 45.48 29.3 47.6323C28.9902 48.1684 28.4251 48.4553 27.8477 48.4437V48.4509H25.0469C26.9158 45.1973 28.806 41.9559 30.6694 38.699C31.1132 37.9296 31.898 37.8818 32.0957 37.8825Z" fill="#0A2833"/>
<path d="M81.3193 0.0280635L81.3116 0.0570743C76.0355 0.157942 71.2179 4.29149 68.7531 10.8487L68.6954 10.8415L39.1801 91.8431L11.2174 43.4185L4.93811 54.2994C2.59825 59.1112 -2.68902 62.8171 4.78099 75.7562C12.1822 88.5617 19.5424 101.394 26.9516 114.194C29.9011 119.16 31.3979 119.483 36.5306 119.503H48.1879C52.4684 119.489 55.0443 119.14 56.9477 113.724L96.5265 0.0273438L81.3193 0.0280635Z" fill="#29A5C4"/>
<path d="M599.023 67.0898V118.628H616.917C622.955 118.628 627.915 117.574 631.794 115.463C635.721 113.303 638.616 110.308 640.481 106.48C642.396 102.602 643.355 98.0606 643.355 92.858C643.355 87.6549 642.396 83.1397 640.481 79.311C638.616 75.4333 635.721 72.4387 631.794 70.3279C627.866 68.1682 622.906 67.0898 616.917 67.0898H599.023ZM608.964 75.5554H616.401C620.624 75.5554 623.962 76.2436 626.417 77.618C628.872 78.9923 630.615 80.9808 631.645 83.5824C632.676 86.1347 633.193 89.2256 633.193 92.858C633.193 96.4411 632.676 99.5342 631.645 102.136C630.615 104.687 628.872 106.653 626.417 108.026C623.962 109.401 620.624 110.087 616.401 110.087H608.964V75.5554Z" fill="#0A2833"/>
<path d="M558.789 118.629V67.0898H592.737V75.1152H568.73V88.5892H590.528V96.32H568.73V110.604H592.737V118.629H558.789Z" fill="#0A2833"/>
<path d="M495.801 118.629V67.0898H508.908L523.562 101.253H523.857L538.364 67.0898H551.398V118.629H541.457V82.699H541.162L528.643 111.266H518.407L506.036 82.699H505.741V118.629H495.801Z" fill="#0A2833"/>
<path d="M458.07 118.629V67.0898H468.012V110.899H490.618V118.629H458.07Z" fill="#0A2833"/>
<path d="M421.686 67.0898L405.34 118.628H415.723L420.252 103.828H439.271L443.704 118.628H454.236L437.963 67.0898H421.686ZM429.713 72.9061H430.009L436.955 96.0983H422.617L429.713 72.9061Z" fill="#0A2833"/>
<path d="M377.708 118.629L361.359 67.0898H371.816L385.808 112.444H386.102L399.8 67.0898H410.256L393.982 118.629H377.708Z" fill="#0A2833"/>
<path d="M336.111 118.997C334.296 118.997 332.823 118.458 331.694 117.378C330.565 116.249 330 114.899 330 113.329C330 111.708 330.565 110.358 331.694 109.279C332.823 108.15 334.296 107.586 336.111 107.586C337.879 107.586 339.328 108.15 340.456 109.279C341.586 110.358 342.151 111.708 342.151 113.329C342.151 114.899 341.586 116.249 340.456 117.378C339.328 118.458 337.879 118.997 336.111 118.997Z" fill="#0A2833"/>
<path d="M296.402 118.629V67.0898H329.981V75.1152H306.344V88.8837H325.342V96.6887H306.344V118.629H296.402Z" fill="#0A2833"/>
<path d="M263.824 66.2031C258.719 66.2031 254.227 67.3333 250.348 69.5913C246.519 71.8492 243.499 74.99 241.291 79.015C239.082 82.9908 237.977 87.6041 237.977 92.8563C237.977 98.1088 239.082 102.748 241.291 106.773C243.499 110.748 246.519 113.865 250.348 116.123C254.227 118.381 258.719 119.511 263.824 119.511C268.979 119.511 273.494 118.381 277.373 116.123C281.3 113.865 284.344 110.748 286.503 106.773C288.664 102.748 289.744 98.1088 289.744 92.8563C289.744 87.6041 288.664 82.9908 286.503 79.015C284.344 74.99 281.3 71.8492 277.373 69.5913C273.494 67.3333 268.979 66.2031 263.824 66.2031ZM263.824 75.1862C267.064 75.1862 269.861 75.8985 272.218 77.3219C274.574 78.7453 276.391 80.7819 277.667 83.4325C278.944 86.034 279.582 89.1749 279.582 92.8563C279.582 96.4883 278.944 99.6314 277.667 102.282C276.391 104.933 274.574 106.993 272.218 108.465C269.861 109.889 267.064 110.601 263.824 110.601C260.682 110.601 257.933 109.889 255.577 108.465C253.22 106.993 251.379 104.933 250.054 102.282C248.777 99.6314 248.139 96.4883 248.139 92.8563C248.139 89.1749 248.777 86.034 250.054 83.4325C251.379 80.7819 253.22 78.7453 255.577 77.3219C257.933 75.8985 260.682 75.1862 263.824 75.1862Z" fill="#0A2833"/>
<path d="M195.457 67.0898V118.628H205.398V98.4552H212.755L222.187 118.628H233.528L222.964 97.2244C223.708 96.9643 224.408 96.6628 225.06 96.3192C227.81 94.8466 229.823 92.9322 231.099 90.576C232.424 88.1709 233.087 85.5942 233.087 82.8455C233.087 79.9494 232.424 77.3228 231.099 74.9667C229.774 72.5616 227.734 70.647 224.985 69.2236C222.285 67.8001 218.874 67.0898 214.75 67.0898H195.457ZM205.398 75.4092H214.089C217.132 75.4092 219.365 76.1213 220.789 77.5448C222.212 78.9192 222.925 80.8078 222.925 83.2129C222.925 85.6181 222.212 87.5567 220.789 89.0292C219.365 90.5017 217.132 91.2398 214.089 91.2398H205.398V75.4092Z" fill="#0A2833"/>
<path d="M152.066 67.0898V118.628H162.008V98.9707H171.433C175.703 98.9707 179.189 98.2344 181.889 96.7617C184.638 95.24 186.651 93.2757 187.928 90.8705C189.253 88.4653 189.917 85.8646 189.917 83.0667C189.917 80.0233 189.229 77.2988 187.854 74.8936C186.529 72.4884 184.492 70.598 181.743 69.2236C179.043 67.8001 175.605 67.0898 171.433 67.0898H152.066ZM162.008 75.1879H170.844C173.986 75.1879 176.245 75.876 177.619 77.2504C179.043 78.6248 179.755 80.5633 179.755 83.0667C179.755 85.4718 179.043 87.3864 177.619 88.8098C176.245 90.2333 173.986 90.9435 170.844 90.9435H162.008V75.1879Z" fill="#0A2833"/>
<path d="M666.017 66.2031C663.082 66.2031 660.215 67.073 657.776 68.7026C655.337 70.3322 653.435 72.6485 652.313 75.3584C651.19 78.0683 650.896 81.0503 651.469 83.9272C652.041 86.8041 653.453 89.4466 655.528 91.5207C657.603 93.5948 660.245 95.0073 663.123 95.5796C666 96.1519 668.983 95.8581 671.693 94.7356C674.404 93.613 676.719 91.7122 678.35 89.2733C679.979 86.8344 680.849 83.9671 680.849 81.0339C680.849 79.0862 680.466 77.1577 679.721 75.3584C678.975 73.559 677.882 71.924 676.505 70.5469C675.127 69.1698 673.492 68.0773 671.693 67.3321C669.893 66.5867 667.965 66.2031 666.017 66.2031ZM665.435 69.183C667.04 69.1041 668.645 69.3523 670.152 69.9124C671.658 70.4723 673.035 71.3325 674.199 72.4407C675.364 73.5489 676.29 74.8821 676.923 76.3593C677.557 77.8364 677.883 79.4267 677.883 81.0339C677.883 84.1804 676.632 87.1979 674.407 89.4227C672.182 91.6476 669.163 92.8975 666.017 92.8974C662.921 92.8951 659.949 91.6836 657.734 89.5214C655.52 87.3593 654.239 84.4175 654.163 81.3237C654.087 78.2298 655.223 75.2289 657.328 72.9608C659.435 70.6927 662.343 69.3369 665.435 69.183Z" fill="#0A2833"/>
<path d="M660.352 72.7976V88.6372H663.613V82.8164H666.208V82.9796L669.166 88.8004H672.662V88.6198L669.237 82.1497C670.112 81.7798 670.855 81.1511 671.363 80.3479C671.857 79.5349 672.101 78.5952 672.066 77.645C672.116 76.9676 672.005 76.2879 671.742 75.6616C671.479 75.0352 671.072 74.4799 670.553 74.0411C669.296 73.1419 667.769 72.7029 666.227 72.7979L660.352 72.7976ZM666.578 75.4722C667.168 75.4965 667.731 75.7224 668.174 76.1124C668.399 76.3517 668.572 76.6358 668.681 76.9462C668.789 77.2567 668.832 77.5866 668.804 77.9143C668.833 78.2453 668.789 78.5789 668.674 78.8906C668.559 79.2023 668.375 79.4844 668.136 79.7162C667.609 80.1603 666.932 80.3861 666.244 80.3476H663.613V75.4827H666.227C666.343 75.4711 666.46 75.4677 666.578 75.4722Z" fill="#0A2833"/>
</svg>
