<svg width="460" height="108" viewBox="0 0 460 108" fill="none" xmlns="http://www.w3.org/2000/svg">
<path d="M215.453 81.0961V27.1841H235.935L242.449 51.1964C242.708 52.034 243.023 53.1708 243.39 54.6107C243.757 56.0507 244.124 57.5544 244.487 59.122C244.854 60.6896 245.165 62.1056 245.429 63.3581H246.055C246.262 62.3649 246.526 61.1762 246.841 59.7881C247.156 58.404 247.495 56.9362 247.862 55.3925C248.229 53.8489 248.568 52.4249 248.883 51.1166L255.476 27.1841H275.408V81.0961H261.755V58.1049C261.755 55.8552 261.767 53.5816 261.794 51.2761C261.818 48.9746 261.858 46.8805 261.914 44.9979C261.966 43.1152 261.994 41.755 261.994 40.9174H261.368C261.212 41.7031 260.961 42.8399 260.622 44.3317C260.283 45.8235 259.916 47.3672 259.525 48.9627C259.134 50.5582 258.779 51.9343 258.464 53.0831L250.618 81.0961H239.318L231.392 53.0831C231.129 52.038 230.818 50.7815 230.451 49.3177C230.084 47.8538 229.733 46.362 229.39 44.8463C229.051 43.3306 228.748 42.0502 228.488 41.0011H227.862C227.914 42.3613 227.966 44.0206 228.018 45.9831C228.07 47.9455 228.121 49.9838 228.173 52.1058C228.225 54.2238 228.253 56.2262 228.253 58.1089V81.1001H215.461L215.453 81.0961Z" fill="#0E0F27"/>
<path d="M287.885 81.0961V27.1841H332.379V38.1691H301.933V48.2926H328.534V59.0422H301.933V70.107H332.93V81.0921H287.885V81.0961Z" fill="#0E0F27"/>
<path d="M376.821 91.3676L368.19 81.7946C367.875 81.8465 367.536 81.8863 367.169 81.9143C366.802 81.9382 366.463 81.9542 366.148 81.9542C360.547 81.9542 355.737 80.9091 351.708 78.815C347.68 76.7249 344.592 73.5977 342.45 69.4374C340.304 65.2772 339.231 60.1636 339.231 54.0967C339.231 48.0298 340.356 42.7048 342.606 38.5964C344.856 34.492 348.086 31.4047 352.299 29.3385C356.511 27.2723 361.572 26.2393 367.484 26.2393C373.395 26.2393 378.457 27.2723 382.669 29.3385C386.881 31.4047 390.112 34.492 392.362 38.5964C394.611 42.7048 395.736 47.8703 395.736 54.0967C395.736 60.3231 394.547 65.7518 392.166 69.9081C389.785 74.0684 386.422 77.1956 382.083 79.2857L394.244 91.3716H376.821V91.3676ZM367.484 71.0449C369.733 71.0449 371.72 70.7059 373.447 70.0238C375.174 69.3457 376.626 68.3485 377.803 67.0402C378.979 65.7319 379.857 64.1364 380.431 62.2537C381.006 60.371 381.293 58.253 381.293 55.8956V52.4414C381.293 50.0362 381.006 47.8902 380.431 46.0075C379.857 44.1248 378.979 42.5293 377.803 41.221C376.626 39.9127 375.174 38.9195 373.447 38.2374C371.72 37.5593 369.733 37.2163 367.484 37.2163C365.234 37.2163 363.168 37.5553 361.441 38.2374C359.714 38.9195 358.274 39.9127 357.125 41.221C355.972 42.5293 355.111 44.1248 354.536 46.0075C353.962 47.8902 353.675 50.0362 353.675 52.4414V55.8956C353.675 58.249 353.962 60.367 354.536 62.2537C355.111 64.1364 355.976 65.7319 357.125 67.0402C358.274 68.3485 359.714 69.3417 361.441 70.0238C363.168 70.7059 365.182 71.0449 367.484 71.0449Z" fill="#0E0F27"/>
<path d="M431.631 82.0299C425.719 82.0299 420.658 80.9969 416.445 78.9307C412.233 76.8645 409.002 73.7652 406.753 69.6329C404.503 65.5006 403.378 60.3231 403.378 54.0967C403.378 47.8703 404.503 42.7048 406.753 38.5964C409.002 34.492 412.233 31.4047 416.445 29.3385C420.658 27.2723 425.719 26.2393 431.631 26.2393C437.542 26.2393 442.604 27.2723 446.816 29.3385C451.028 31.4047 454.259 34.492 456.508 38.5964C458.758 42.7048 459.883 47.8703 459.883 54.0967C459.883 60.3231 458.758 65.5006 456.508 69.6329C454.259 73.7652 451.028 76.8645 446.816 78.9307C442.604 80.9969 437.542 82.0299 431.631 82.0299ZM431.631 71.0449C433.88 71.0449 435.867 70.7059 437.594 70.0238C439.321 69.3457 440.773 68.3485 441.95 67.0402C443.126 65.7319 444.004 64.1364 444.578 62.2537C445.152 60.371 445.44 58.253 445.44 55.8956V52.4414C445.44 50.0362 445.152 47.8902 444.578 46.0075C444.004 44.1248 443.126 42.5293 441.95 41.221C440.773 39.9127 439.321 38.9195 437.594 38.2374C435.867 37.5593 433.88 37.2163 431.631 37.2163C429.381 37.2163 427.315 37.5553 425.588 38.2374C423.861 38.9195 422.421 39.9127 421.272 41.221C420.119 42.5293 419.258 44.1248 418.683 46.0075C418.109 47.8902 417.822 50.0362 417.822 52.4414V55.8956C417.822 58.249 418.109 60.367 418.683 62.2537C419.258 64.1364 420.123 65.7319 421.272 67.0402C422.421 68.3485 423.861 69.3417 425.588 70.0238C427.315 70.7059 429.329 71.0449 431.631 71.0449Z" fill="#0E0F27"/>
<path d="M107.692 23.067C107.692 10.3468 97.3455 0 84.6254 0C71.9052 0 61.5584 10.3468 61.5584 23.067C61.5584 44.2911 44.2911 61.5584 23.067 61.5584C10.3468 61.5584 0 71.9052 0 84.6254C0 97.3455 10.3468 107.692 23.067 107.692C35.7871 107.692 46.1339 97.3455 46.1339 84.6254C46.1339 63.4012 63.4012 46.1339 84.6254 46.1339C97.3455 46.1339 107.692 35.7871 107.692 23.067Z" fill="#0E0F27"/>
<path d="M169.247 23.067C169.247 10.3468 158.901 0 146.18 0C133.46 0 123.114 10.3468 123.114 23.067C123.114 44.2911 105.846 61.5584 84.6221 61.5584C71.9019 61.5584 61.5551 71.9052 61.5551 84.6254C61.5551 97.3455 71.9019 107.692 84.6221 107.692C97.3422 107.692 107.689 97.3455 107.689 84.6254C107.689 63.4012 124.956 46.1339 146.18 46.1339C158.901 46.1339 169.247 35.7871 169.247 23.067Z" fill="#0E0F27"/>
<path d="M146.184 107.691C158.923 107.691 169.251 97.3631 169.251 84.6236C169.251 71.8841 158.923 61.5566 146.184 61.5566C133.444 61.5566 123.117 71.8841 123.117 84.6236C123.117 97.3631 133.444 107.691 146.184 107.691Z" fill="#0E0F27"/>
</svg>
