<svg width="659" height="116" viewBox="0 0 659 116" fill="none" xmlns="http://www.w3.org/2000/svg">
<g clip-path="url(#clip0_4015_1370)">
<path d="M92.3255 15.1503C87.295 29.6196 82.2472 44.0828 77.222 58.5539H83.9462C85.0969 58.5539 86.0267 59.4844 86.0267 60.6342V62.7072H78.1137C77.2847 62.7072 75.6209 63.1501 74.7131 65.759L65.6455 91.7944V109.861C65.6455 115.152 68.0295 115.484 72.1751 115.504H82.5993C86.1338 115.407 90.5827 113.757 92.8366 109.948L92.8923 109.864L114.028 73.2264C121.242 60.7344 115.994 57.1176 113.886 52.5033L92.3255 15.1503ZM89.6546 36.6077L95.5722 36.6147C95.7606 36.6147 96.5976 36.5867 97.0672 37.3988C98.0285 39.0647 101.626 45.3558 102.502 46.8213H99.7954V46.8143C99.2367 46.8247 98.6902 46.5482 98.3914 46.0301L94.7844 39.7822H91.2497C90.372 39.7822 89.6658 39.076 89.6658 38.1986L89.6546 36.6077ZM99.7907 76.974H102.498C100.237 80.8879 104.264 73.9212 97.0625 86.3965C96.7619 86.916 96.2172 87.1932 95.6594 87.1807L89.6503 87.1876L89.6644 85.597C89.6644 84.7195 90.3707 84.0134 91.2481 84.0134H94.7825L98.3895 77.7655C98.6892 77.2473 99.2349 76.9701 99.7935 76.9813L99.7907 76.974Z" fill="white"/>
<path d="M35.5748 12.7153C31.9835 12.7153 27.3002 14.3446 24.9777 18.2937C21.12 24.969 17.2656 31.6468 13.4102 38.3236C21.2875 51.9691 29.1703 65.6114 37.0447 79.2586C39.0747 73.7426 41.1112 68.2285 43.1134 62.7036H36.483V62.7107C35.3319 62.7107 34.3989 61.7756 34.3989 60.6341V58.5606C35.12 58.5606 42.1064 58.5535 42.4655 58.5535C44.2647 58.4311 45.2227 56.8974 45.689 55.7596L52.6578 36.7569V18.366C52.6578 13.0752 50.2808 12.7434 46.1353 12.7228L35.5748 12.7153ZM31.0201 36.6127H37.066L37.052 38.1243C37.052 38.8059 36.5776 39.7902 35.4654 39.7902H31.9307C30.7257 41.8716 29.5251 43.9555 28.3181 46.0357C28.0187 46.5538 27.4726 46.831 26.9145 46.8199V46.8269H24.2075C26.0138 43.6823 27.8407 40.5495 29.6416 37.4018C30.0706 36.6582 30.829 36.612 31.0201 36.6127Z" fill="white"/>
<path d="M78.5934 0.0271238L78.586 0.0551622C73.4867 0.152649 68.8306 4.14764 66.4484 10.485L66.3927 10.4781L37.8667 88.7645L10.8413 41.9631L4.7725 52.4793C2.51107 57.1298 -2.59897 60.7115 4.62064 73.2169C11.7738 85.5932 18.8873 97.9953 26.0481 110.366C28.8987 115.166 30.3453 115.478 35.306 115.498H46.5726C50.7096 115.484 53.1991 115.146 55.0387 109.912L93.2908 0.0264282L78.5934 0.0271238Z" fill="#29A5C4"/>
<path d="M578.944 64.841V114.651H596.238C602.074 114.651 606.868 113.632 610.617 111.592C614.412 109.506 617.21 106.611 619.013 102.911C620.863 99.1631 621.79 94.7736 621.79 89.7454C621.79 84.7167 620.863 80.3529 619.013 76.6525C617.21 72.9048 614.412 70.0105 610.617 67.9705C606.82 65.8832 602.026 64.841 596.238 64.841H578.944ZM588.551 73.0228H595.739C599.821 73.0228 603.047 73.688 605.42 75.0162C607.793 76.3445 609.477 78.2664 610.473 80.7807C611.469 83.2475 611.969 86.2348 611.969 89.7454C611.969 93.2084 611.469 96.1978 610.473 98.7122C609.477 101.178 607.793 103.078 605.42 104.405C603.047 105.734 599.821 106.397 595.739 106.397H588.551V73.0228Z" fill="white"/>
<path d="M540.059 114.653V64.841H572.868V72.5974H549.667V85.6197H570.733V93.0914H549.667V106.896H572.868V114.653H540.059Z" fill="white"/>
<path d="M479.182 114.653V64.841H491.849L506.013 97.8594H506.298L520.318 64.841H532.915V114.653H523.307V79.9269H523.022L510.923 107.537H501.03L489.074 79.9269H488.789V114.653H479.182Z" fill="white"/>
<path d="M442.716 114.653V64.841H452.324V107.181H474.173V114.653H442.716Z" fill="white"/>
<path d="M407.551 64.841L391.753 114.651H401.788L406.165 100.348H424.547L428.831 114.651H439.01L423.282 64.841H407.551ZM415.309 70.4623H415.595L422.309 92.8771H408.451L415.309 70.4623Z" fill="white"/>
<path d="M365.047 114.653L349.247 64.841H359.353L372.876 108.675H373.161L386.399 64.841H396.504L380.776 114.653H365.047Z" fill="white"/>
<path d="M324.845 115.009C323.09 115.009 321.667 114.487 320.575 113.443C319.484 112.352 318.938 111.048 318.938 109.53C318.938 107.964 319.484 106.659 320.575 105.616C321.667 104.525 323.09 103.98 324.845 103.98C326.553 103.98 327.954 104.525 329.044 105.616C330.136 106.659 330.682 107.964 330.682 109.53C330.682 111.048 330.136 112.352 329.044 113.443C327.954 114.487 326.553 115.009 324.845 115.009Z" fill="white"/>
<path d="M286.467 114.653V64.841H318.92V72.5974H296.075V85.9043H314.436V93.4477H296.075V114.653H286.467Z" fill="white"/>
<path d="M254.981 63.984C250.047 63.984 245.706 65.0763 241.957 67.2586C238.256 69.4408 235.338 72.4763 233.203 76.3664C231.068 80.209 230 84.6676 230 89.7437C230 94.8202 231.068 99.3035 233.203 103.194C235.338 107.036 238.256 110.049 241.957 112.231C245.706 114.413 250.047 115.505 254.981 115.505C259.963 115.505 264.327 114.413 268.076 112.231C271.871 110.049 274.813 107.036 276.9 103.194C278.988 99.3035 280.032 94.8202 280.032 89.7437C280.032 84.6676 278.988 80.209 276.9 76.3664C274.813 72.4763 271.871 69.4408 268.076 67.2586C264.327 65.0763 259.963 63.984 254.981 63.984ZM254.981 72.666C258.113 72.666 260.816 73.3543 263.094 74.7301C265.371 76.1058 267.127 78.0741 268.36 80.6359C269.594 83.1502 270.21 86.1857 270.21 89.7437C270.21 93.2541 269.594 96.2917 268.36 98.8535C267.127 101.415 265.371 103.406 263.094 104.83C260.816 106.206 258.113 106.894 254.981 106.894C251.944 106.894 249.288 106.206 247.01 104.83C244.732 103.406 242.953 101.415 241.673 98.8535C240.439 96.2917 239.822 93.2541 239.822 89.7437C239.822 86.1857 240.439 83.1502 241.673 80.6359C242.953 78.0741 244.732 76.1058 247.01 74.7301C249.288 73.3543 251.944 72.666 254.981 72.666Z" fill="white"/>
<path d="M188.905 64.841V114.651H198.513V95.1549H205.623L214.74 114.651H225.7L215.49 93.9655C216.21 93.714 216.886 93.4227 217.516 93.0905C220.174 91.6674 222.119 89.8171 223.352 87.5399C224.634 85.2154 225.274 82.7251 225.274 80.0685C225.274 77.2695 224.634 74.7309 223.352 72.4539C222.071 70.1294 220.1 68.2789 217.444 66.9033C214.834 65.5275 211.537 64.841 207.552 64.841H188.905ZM198.513 72.8815H206.912C209.854 72.8815 212.011 73.5697 213.388 74.9455C214.764 76.2739 215.452 78.0991 215.452 80.4237C215.452 82.7482 214.764 84.6218 213.388 86.0449C212.011 87.4681 209.854 88.1814 206.912 88.1814H198.513V72.8815Z" fill="white"/>
<path d="M146.969 64.841V114.651H156.577V95.6532H165.686C169.813 95.6532 173.182 94.9415 175.792 93.5183C178.449 92.0476 180.394 90.1491 181.628 87.8245C182.909 85.4999 183.551 82.9864 183.551 80.2823C183.551 77.341 182.885 74.7077 181.557 72.3832C180.276 70.0586 178.308 68.2315 175.65 66.9033C173.041 65.5275 169.719 64.841 165.686 64.841H146.969ZM156.577 72.6676H165.117C168.153 72.6676 170.337 73.3327 171.665 74.661C173.041 75.9893 173.729 77.8629 173.729 80.2823C173.729 82.6068 173.041 84.4572 171.665 85.8329C170.337 87.2087 168.153 87.8951 165.117 87.8951H156.577V72.6676Z" fill="white"/>
<path d="M643.691 63.984C640.855 63.984 638.085 64.8247 635.727 66.3997C633.37 67.9747 631.531 70.2133 630.447 72.8323C629.362 75.4515 629.078 78.3335 629.631 81.114C630.184 83.8944 631.549 86.4484 633.554 88.453C635.56 90.4575 638.113 91.8227 640.894 92.3758C643.676 92.9289 646.558 92.6449 649.177 91.56C651.797 90.4751 654.035 88.6381 655.611 86.2808C657.186 83.9237 658.026 81.1525 658.026 78.3176C658.026 76.4353 657.656 74.5714 656.936 72.8323C656.215 71.0933 655.159 69.5132 653.828 68.1822C652.497 66.8512 650.916 65.7954 649.177 65.0751C647.438 64.3548 645.574 63.984 643.691 63.984ZM643.129 66.864C644.681 66.7878 646.231 67.0276 647.688 67.5689C649.144 68.1101 650.475 68.9414 651.599 70.0125C652.725 71.0836 653.62 72.3721 654.232 73.7997C654.844 75.2273 655.16 76.7644 655.16 78.3176C655.16 81.3587 653.951 84.2751 651.801 86.4253C649.65 88.5756 646.732 89.7835 643.691 89.7834C640.7 89.7812 637.828 88.6104 635.687 86.5207C633.547 84.431 632.308 81.5878 632.235 78.5977C632.161 75.6076 633.259 72.7072 635.294 70.5151C637.33 68.323 640.141 67.0128 643.129 66.864Z" fill="white"/>
<path d="M638.217 70.3574V85.6661H641.369V80.0404H643.877V80.1982L646.735 85.8238H650.114V85.6492L646.804 79.3961C647.65 79.0385 648.368 78.431 648.86 77.6547C649.337 76.8689 649.572 75.9607 649.539 75.0424C649.587 74.3876 649.479 73.7307 649.225 73.1254C648.971 72.52 648.577 71.9833 648.076 71.5592C646.862 70.6902 645.385 70.2659 643.895 70.3577L638.217 70.3574ZM644.235 72.9423C644.804 72.9658 645.349 73.1842 645.777 73.5611C645.995 73.7924 646.162 74.067 646.267 74.367C646.372 74.6671 646.413 74.9859 646.386 75.3026C646.414 75.6225 646.372 75.945 646.26 76.2462C646.149 76.5475 645.972 76.8201 645.741 77.0441C645.231 77.4734 644.577 77.6916 643.912 77.6544H641.369V72.9526H643.895C644.007 72.9413 644.12 72.9381 644.235 72.9423Z" fill="white"/>
</g>
<defs>
<clipPath id="clip0_4015_1370">
<rect width="658.852" height="115.978" fill="white"/>
</clipPath>
</defs>
</svg>
